<svg xmlns="http://www.w3.org/2000/svg" xmlns:xlink="http://www.w3.org/1999/xlink" width="48.996" height="31.018" viewBox="0 0 48.996 31.018">
  <defs>
    <clipPath id="clip-path">
      <rect id="Rectangle_31" data-name="Rectangle 31" width="48.996" height="31.018" fill="#c09628"/>
    </clipPath>
  </defs>
  <g id="Groupe_58" data-name="Groupe 58" transform="translate(0 0)">
    <g id="Groupe_57" data-name="Groupe 57" transform="translate(0 0)" clip-path="url(#clip-path)">
      <path id="Tracé_16" data-name="Tracé 16" d="M1.767,40.07c1.265-1.2,2.531-2.444,3.757-3.647l3.75-3.673q2.859-2.8,5.721-5.594a4.13,4.13,0,0,1,5.513-.485c.161.11.321.221.481.332.3.208.6.415.9.616a6.025,6.025,0,0,0,7.879-1.1q2.172-2.372,4.352-4.735l2.853-3.1c.688-.745,1.4-1.516,2.087-2.284a.925.925,0,0,0-.023-1.337.949.949,0,0,0-1.373.073c-.141.139-.274.286-.408.433L34.481,18.6q-3.069,3.339-6.144,6.673a4.155,4.155,0,0,1-5.632.615q-.223-.153-.445-.309c-.345-.242-.7-.491-1.061-.713a5.906,5.906,0,0,0-3.15-.91,6.149,6.149,0,0,0-4.522,1.974q-4.4,4.326-8.821,8.639L.589,38.593a3.433,3.433,0,0,0-.4.425.862.862,0,0,0-.073.971.767.767,0,0,0,.777.49,1.764,1.764,0,0,0,.874-.409" transform="translate(0 -9.485)" fill="#c09628"/>
      <path id="Tracé_17" data-name="Tracé 17" d="M125.117,49.227a3.03,3.03,0,0,0-3.075-2.552q-.154,0-.311.013a3.131,3.131,0,0,0-2.775,3.119c-.02,2.308-.02,4.747,0,7.908a3.1,3.1,0,0,0,3.113,3.2h.017a3.083,3.083,0,0,0,3.092-3.231c.006-.886,0-1.772,0-2.658V53.076c0-.554,0-1.109,0-1.663,0-.213,0-.427.005-.64a8.755,8.755,0,0,0-.063-1.546m-1.829,8.481a1.367,1.367,0,0,1-.4,1,1.161,1.161,0,0,1-.807.317h-.061a1.231,1.231,0,0,1-1.155-1.34c0-.916,0-1.833,0-2.75V52.723q0-1.393,0-2.786a1.222,1.222,0,0,1,1.186-1.367,1.158,1.158,0,0,1,.855.325,1.379,1.379,0,0,1,.385,1.01c.01,2.752.009,5.3,0,7.8" transform="translate(-76.19 -29.899)" fill="#c09628"/>
      <path id="Tracé_18" data-name="Tracé 18" d="M93.574,61.791a3.107,3.107,0,0,0,6.213.1c.047-2.1.046-4.03,0-5.906a3.093,3.093,0,0,0-3.135-3.023h-.068a3.105,3.105,0,0,0-3.007,3.122c-.009.663-.006,1.326,0,1.989l0,.918,0,.864c0,.647,0,1.294,0,1.941M95.459,56.2a1.389,1.389,0,0,1,.377-1.009,1.157,1.157,0,0,1,.854-.326,1.213,1.213,0,0,1,1.2,1.354c0,.642,0,1.285,0,1.927v1.636c0,.633,0,1.266,0,1.9A1.242,1.242,0,0,1,96.7,63.049h-.028a1.163,1.163,0,0,1-.82-.325,1.4,1.4,0,0,1-.394-1.015c-.01-1.819-.011-3.673,0-5.512" transform="translate(-59.938 -33.924)" fill="#c09628"/>
      <path id="Tracé_19" data-name="Tracé 19" d="M100.011,11.458a1.1,1.1,0,0,0,.366.868.952.952,0,0,0,.8.173,1.041,1.041,0,0,0,.741-1.145q0-5.056,0-10.112c0-.936-.308-1.237-1.264-1.237q-4.213,0-8.428,0c-.176,0-.353,0-.53,0C91.2,0,90.7,0,90.2.021a.9.9,0,0,0-.832.9.938.938,0,0,0,.812.942,3.837,3.837,0,0,0,.463.017h9.363V8c0,1.152,0,2.3.006,3.456" transform="translate(-57.248 0)" fill="#c09628"/>
      <path id="Tracé_20" data-name="Tracé 20" d="M49.64,63.549a3.049,3.049,0,0,0-3.076-2.837h0a3.09,3.09,0,0,0-3.083,2.842c-.028.389-.021.777-.013,1.188,0,.19.007.381.007.571s0,.377-.007.566c-.008.413-.015.8.013,1.192a3.092,3.092,0,0,0,6.161.006,31.051,31.051,0,0,0,0-3.528m-1.861,3.221a1.222,1.222,0,0,1-1.214,1.249h0a1.234,1.234,0,0,1-1.216-1.241c-.013-.347-.01-.694-.006-1.041,0-.15,0-.3,0-.448s0-.29,0-.436c0-.335-.006-.669.007-1a1.2,1.2,0,0,1,1.214-1.231h0a1.2,1.2,0,0,1,1.215,1.236c.018.958.018,1.938,0,2.914" transform="translate(-27.839 -38.891)" fill="#c09628"/>
      <path id="Tracé_21" data-name="Tracé 21" d="M74.642,71.6a10.933,10.933,0,0,0-.007-2.312,2.552,2.552,0,0,0-2.186-2.223,6.089,6.089,0,0,0-1.674-.005,2.5,2.5,0,0,0-2.167,1.9,4.627,4.627,0,0,0-.138,1.021c0,.057-.008.114-.011.171l.027.321,0,.262c0,.18,0,.361,0,.541A2.679,2.679,0,0,0,70.6,73.858a6.34,6.34,0,0,0,1.481.065A2.611,2.611,0,0,0,74.642,71.6m-2.1.208a1.022,1.022,0,0,1-.772.248c-.162,0-.338-.014-.527-.028l-.073-.006a1.037,1.037,0,0,1-.778-.807,6.738,6.738,0,0,1-.027-1.294l.006-.149a.854.854,0,0,1,.918-.873H71.7c.816.007,1.094.286,1.1,1.106v.534c0,.036,0,.071,0,.107a1.47,1.47,0,0,1-.261,1.162" transform="translate(-43.852 -42.922)" fill="#c09628"/>
    </g>
  </g>
</svg>
